<svg width="200" height="34" viewBox="0 0 200 34" fill="none" xmlns="http://www.w3.org/2000/svg">
<path d="M107.164 1.15531C105.211 1.71205 103.595 2.73621 102.134 4.52552C102.134 3.55495 102.082 2.90294 102.148 2.26284C102.225 1.51704 101.908 1.35479 101.238 1.39647C100.405 1.44857 99.5575 1.47685 98.7283 1.39051C97.7756 1.29226 97.536 1.60785 97.5389 2.56502C97.5791 11.586 97.5598 20.6084 97.5657 29.6294C97.5672 30.7652 97.1698 32.3268 97.7488 32.9282C98.4768 33.6859 100.046 33.074 101.244 33.1857C101.926 33.2482 102.191 33.0517 102.151 32.3178C102.087 31.1418 102.134 29.9584 102.134 28.7794C102.134 26.3277 102.134 23.8774 102.134 21.3051C105.688 24.6798 107.736 24.8926 111.426 24.72C115.021 24.5518 117.644 22.6776 119.737 19.9058C122.595 16.1203 122.506 9.07768 119.392 5.18795C116.446 1.50662 111.481 -0.0742769 107.164 1.15531ZM109.833 20.5682C105.57 20.6471 102.042 17.1698 102.133 12.8066C101.927 8.55965 105.656 4.99741 109.72 5.04653C114.146 5.10012 117.486 8.55369 117.439 12.9332C117.394 17.204 114.134 20.4879 109.833 20.5682Z" fill="#003A77"/>
<path d="M70.9764 1.3931C70.107 1.46604 69.2198 1.46902 68.3505 1.3931C67.5005 1.31718 67.3055 1.66849 67.3784 2.42917C67.4365 3.04099 67.3903 3.66323 67.3903 4.40604C66.3423 3.60964 65.7603 2.62418 64.7421 2.11805C62.4035 0.953963 60.0113 0.496961 57.3646 0.913771C53.2932 1.55387 50.45 3.83591 48.7991 7.38921C46.5662 12.1959 47.4728 18.5121 51.8284 22.1249C54.8012 24.5916 58.088 25.1587 61.7485 24.5677C63.9918 24.206 65.7201 22.9809 67.2593 21.3136C67.6419 22.3393 66.8604 23.688 67.6747 24.145C68.4591 24.5856 69.6783 24.2551 70.7055 24.2641C70.8573 24.2656 71.0136 24.2447 71.1625 24.267C71.8413 24.3727 71.9857 24.0482 71.9738 23.426C71.938 21.6367 71.9618 19.8459 71.9618 18.0566C71.9618 12.839 71.944 7.61995 71.9812 2.40238C71.9857 1.60746 71.7921 1.32463 70.9764 1.3931ZM67.3903 12.9268C67.4141 17.1962 63.9606 20.6423 59.6853 20.5693C55.3996 20.4949 52.0502 17.156 52.0726 12.7021C52.0949 8.45059 55.5112 5.07889 59.8074 5.06252C64.1481 5.04466 67.6285 8.72003 67.3903 12.9268Z" fill="#003A77"/>
<path d="M148.216 1.44868C146.93 1.38616 145.553 1.19413 144.387 1.57968C143.827 1.76426 144.281 3.1829 144.186 4.03736C144.179 4.10286 144.14 4.16538 144.078 4.33062C143.4 3.69796 142.854 3.03256 142.168 2.57853C139.772 0.990186 137.178 0.478106 134.281 0.905337C130.113 1.52013 127.387 3.90935 125.513 7.45968C124.245 9.8608 124.319 12.5284 124.605 15.0888C124.897 17.6998 126.216 20.0086 128.163 21.7771C130.155 23.5858 132.46 24.7499 135.323 24.7707C137.761 24.7886 140.008 24.5057 142.069 23.1079C142.809 22.6063 143.336 21.8679 144.194 21.3112C144.194 22.0897 144.232 22.7298 144.183 23.364C144.131 24.0279 144.292 24.339 145.044 24.2794C145.913 24.211 146.796 24.2154 147.667 24.278C148.383 24.3301 148.561 24.0815 148.554 23.3848C148.517 20.3421 148.537 17.2979 148.537 14.2537C148.537 10.297 148.543 6.34024 148.526 2.38352C148.521 2.05901 148.777 1.47696 148.216 1.44868ZM144.192 12.71C144.122 17.3649 140.962 20.4909 136.572 20.5564C132.261 20.6205 128.959 17.3827 128.876 12.7904C128.797 8.43917 132.52 5.03622 136.495 5.04664C140.815 5.05855 144.304 8.70266 144.192 12.71Z" fill="#003A77"/>
<path d="M198.332 6.35984C196.984 4.06887 195.133 2.32869 192.576 1.40724C190.356 0.607859 188.091 0.542361 185.813 0.980012C183.926 1.34174 182.2 2.12326 180.722 3.39007C176.765 6.78112 175.945 11.1993 176.934 15.9926C177.708 19.7528 180.042 22.4294 183.682 23.9061C185.886 24.8007 188.149 24.9287 190.47 24.7233C193.497 24.4554 196.104 23.3553 197.99 20.8738C199.159 19.336 199.142 19.3271 197.433 18.4265C196.808 18.0975 196.217 17.5571 195.562 17.4678C194.729 17.3547 194.602 18.4012 194.068 18.8373C193.981 18.9073 193.867 18.9401 193.783 19.013C192.275 20.317 190.487 20.6773 188.554 20.6133C185.109 20.5001 182.108 18.6304 181.257 14.8955C181.772 14.8955 182.188 14.8955 182.605 14.8955C188.013 14.8955 193.423 14.8821 198.831 14.9089C199.644 14.9134 199.955 14.7065 199.986 13.8282C200.082 11.1814 199.686 8.65676 198.332 6.35984ZM194.687 11.0132C192.557 11.0013 190.426 11.0088 188.295 11.0088C186.202 11.0088 184.11 10.9924 182.017 11.0177C181.285 11.0266 181.182 10.9016 181.397 10.1215C182.218 7.13242 185.207 4.99032 188.598 5.00223C191.509 5.01116 194.657 7.16666 195.269 10.2436C195.41 10.9552 195.267 11.0162 194.687 11.0132Z" fill="#003A77"/>
<path d="M25.6674 2.95496C22.7974 0.853049 19.6222 0.275469 16.1984 0.95874C10.9213 2.01119 7.72521 5.84435 6.82609 10.7136C6.73827 11.1855 6.84247 11.504 7.46173 11.4772C8.48738 11.4326 9.51899 11.4266 10.5446 11.4817C11.0523 11.5085 11.2785 11.2182 11.3455 10.8699C11.6894 9.09249 12.6763 7.72744 14.0548 6.64522C17.885 3.63675 23.2529 4.98542 25.127 9.51079C25.5051 10.4233 25.0794 10.5975 24.4036 10.7687C18.3822 12.2885 12.3101 13.3961 6.05649 13.0686C5.07996 13.0179 4.1466 12.8706 3.25195 12.4166C2.54337 12.0563 2.60292 11.7482 3.05099 11.2123C3.54074 10.6258 4.34012 10.66 5.1127 10.0095C3.60475 10.2313 2.50467 10.5826 1.45371 11.1885C-0.643738 12.3972 -0.357926 14.3741 1.58322 15.5843C3.01526 16.4775 4.64826 16.8749 6.2634 16.9092C9.77354 16.9836 13.2822 17.0357 16.7953 16.5415C20.685 15.9937 24.5048 15.1735 28.1861 13.8813C31.0442 12.878 30.8954 13.6982 30.3357 10.3578C29.8191 7.28235 28.2114 4.81721 25.6674 2.95496Z" fill="#003A77"/>
<path d="M89.6373 11.8541C87.2183 11.022 84.6877 10.5471 82.361 9.40238C80.6565 8.56281 80.8158 6.63655 82.1496 5.71957C84.2277 4.28753 88.1517 4.73708 89.3857 7.28409C89.6269 7.78277 89.8785 7.93461 90.4159 7.60712C91.3388 7.0474 92.3079 6.55765 93.271 6.0679C93.591 5.90415 93.7756 5.79549 93.4958 5.42185C92.9837 4.73709 92.6235 3.89751 92.0027 3.34524C90.0005 1.56784 87.592 0.758037 84.7189 0.713379C82.2062 0.790786 79.7812 1.48001 77.8654 3.59532C76.1252 5.51711 76.0612 9.95317 77.919 11.68C79.4671 13.1179 81.3085 13.6345 83.1887 14.2106C84.8574 14.7212 86.5663 15.0978 88.0966 16.0118C89.676 16.9541 89.8383 18.9652 88.2976 19.8658C85.8667 21.2874 81.386 20.9391 79.7857 17.6671C79.4656 17.0151 79.1962 17.1238 78.7883 17.3426C77.9026 17.819 77.0437 18.343 76.1609 18.8238C75.7099 19.0694 75.5342 19.2525 75.7977 19.8509C76.3693 21.1505 77.2714 22.1404 78.4072 22.8892C82.1675 25.3707 86.2076 25.4585 90.2238 23.7674C93.0983 22.5557 94.1969 20.3853 94.0912 17.6314C93.996 15.0784 92.948 12.9929 89.6373 11.8541Z" fill="#003A77"/>
<path d="M174.094 18.2941C173.229 17.8654 172.416 17.328 171.593 16.8159C171.076 16.4944 170.783 16.4363 170.378 17.0973C168.995 19.3525 166.878 20.3722 164.376 20.4109C163.657 20.3008 163.065 20.405 162.451 20.2695C158.728 19.4538 155.879 15.4434 156.719 11.3245C157.472 7.62825 160.479 5.21075 164.004 5.09018C166.758 4.99639 168.907 6.24682 170.396 8.56905C170.612 8.90548 170.697 9.24041 171.186 8.95013C172.114 8.39935 173.058 7.87834 173.985 7.32904C174.253 7.16976 174.406 7.01048 174.228 6.59963C173.721 5.44 173.008 4.395 172.066 3.62539C170.293 2.17846 168.303 1.2198 165.936 0.892302C161.802 0.320677 158.247 1.3895 155.389 4.32652C152.958 6.82291 152.022 9.95792 152.165 13.4815C152.324 17.4144 153.997 20.4452 157.137 22.7093C159.601 24.4867 162.374 24.9914 165.379 24.7413C169.327 24.4108 172.222 22.4786 174.36 19.2498C174.633 18.8375 174.631 18.5621 174.094 18.2941Z" fill="#003A77"/>
<path d="M45.3603 0.944394C42.9666 1.03669 40.9659 1.91497 39.2763 4.06898C39.2763 3.31873 39.2332 2.8647 39.2853 2.42109C39.3775 1.65148 39.1483 1.32548 38.3102 1.39247C37.365 1.46838 36.4078 1.44457 35.4581 1.39842C34.8447 1.36865 34.6914 1.58896 34.6929 2.17696C34.7108 9.2925 34.7123 16.4081 34.6914 23.5236C34.6899 24.1488 34.9088 24.2992 35.4834 24.2753C36.4331 24.2366 37.3888 24.2203 38.3355 24.2798C39.0739 24.3259 39.3001 24.1012 39.2927 23.342C39.254 19.5371 39.324 15.7307 39.2614 11.9273C39.1974 8.06589 41.7161 5.69454 45.3603 5.53972C45.9334 5.51591 46.173 5.40129 46.1448 4.78054C46.0971 3.75489 46.0971 2.72477 46.1448 1.69912C46.1745 1.07688 45.9408 0.920576 45.3603 0.944394Z" fill="#003A77"/>
<path d="M26.1155 18.9935C25.7732 19.5205 25.267 20.0028 24.7296 20.3318C20.7893 22.7388 15.8471 22.0824 12.9443 18.5901C12.6957 18.2909 12.5171 18.0646 12.0631 18.0795C10.7337 18.1212 9.40145 18.0944 7.95898 18.0944C9.60687 21.9127 14.3511 25.9364 20.9203 24.7231C24.9425 23.9818 29.0168 20.5044 29.776 16.777C28.3499 17.1744 26.9938 17.6433 26.1155 18.9935Z" fill="#003A77"/>
</svg>